# xmcd
# 
# Track frame offsets:
#     182
#     16367
#     29610
#     45580
#     65307
#     85572
#     103662
#     121567
#     145012
#     166850
#     187477
#     209127
#     223142
#     239117
#     259950
#     284467
# 
# Disc length: 4074
# 
# Revision: 7
# Processed by: cddbd v1.5.2PL0 Copyright (c) Steve Scherf et al.
# Submitted via: fre:ac v1.0.31
# 
DISCID=f40fe810
DTITLE=Ana Belen y Victor Manuel - Mucho más que dos CD 2
DYEAR=1994
DGENRE=Duet
TTITLE0=Mediterraneo
TTITLE1=La Paloma
TTITLE2=Soy Un Corazon Tendido Al Sol
TTITLE3=Yo Tambien Naci En El 53
TTITLE4=Luna
TTITLE5=Blues Del Autobus
TTITLE6=El Abuelo Victor
TTITLE7=El Hombre Del Piano
TTITLE8=La Madre
TTITLE9=Marilyn Monroe
TTITLE10=Cruzar Los Brazos
TTITLE11=Quiero Abrazarte Tanto
TTITLE12=Desde Mi Libertad
TTITLE13=Asturias
TTITLE14=La Puerta De Alcala
TTITLE15=La Muralla
EXTD=1994 ID3G:  13 YEAR: 1994
EXTT0=
EXTT1=
EXTT2=
EXTT3=
EXTT4=
EXTT5=
EXTT6=
EXTT7=
EXTT8=
EXTT9=
EXTT10=
EXTT11=
EXTT12=
EXTT13=
EXTT14=
EXTT15=
PLAYORDER=
